[Header]
FileType HTR
DataType HTRS
FileVersion 1
NumSegments 22
NumFrames 8
DataFrameRate 24
EulerRotationOrder ZYX
CalibrationUnits mm
RotationUnits Degrees
GlobalAxisofGravity Y
BoneLengthAxis Y
ScaleFactor 1.0
[SegmentNames&Hierarchy]
reference	GLOBAL
Hips	reference
Spine	Hips
Spine1	Spine
Neck	Spine1
Head	Neck
LeftShoulder	Spine1
LeftArm	LeftShoulder
LeftForeArm	LeftArm
LeftHand	LeftForeArm
RightShoulder	Spine1
RightArm	RightShoulder
RightForeArm	RightArm
RightHand	RightForeArm
LeftUpLeg	Hips
LeftLeg	LeftUpLeg
LeftFoot	LeftLeg
LeftToeBase	LeftFoot
RightUpLeg	Hips
RightLeg	RightUpLeg
RightFoot	RightLeg
RightToeBase	RightFoot
[BasePosition]
reference	0	0	0	0	0	0	1
Hips	0	0	0	0	0	0	1
Spine	0	0	0	-0	-90	0	1
Spine1	0	0	0	0	0	0	1
Neck	0	0	0	82.64767223	-82.64767223	-90	1
Head	0	0	0	-0	-90	0	1
LeftShoulder	0	0	0	0	0	0	1
LeftArm	0	0	0	0	0	0	1
LeftForeArm	0	0	0	0	0	0	1
LeftHand	0	0	0	0	0	0	1
RightShoulder	0	0	0	0	-0	180	1
RightArm	0	0	0	0	-0	180	1
RightForeArm	0	0	0	0	-0	180	1
RightHand	0	0	0	0	-0	180	1
LeftUpLeg	0	0	0	-0	90	0	1
LeftLeg	0	0	0	-0	90	0	1
LeftFoot	0	0	0	-23.42853957	23.42853957	-90	1
LeftToeBase	0	0	0	0	-0	-90	1
RightUpLeg	0	0	0	-0	90	0	1
RightLeg	0	0	0	-0	90	0	1
RightFoot	0	0	0	-23.42853957	23.42853957	-90	1
RightToeBase	0	0	0	0	-0	-90	1
[reference]
23	0	0	0	0	-0	0	1.0
24	0	0	0	0	-0	0	1.0
25	0	0	0	0	-0	0	1.0
26	0	0	0	0	-0	0	1.0
27	0	0	0	0	-0	0	1.0
28	0	0	0	0	-0	0	1.0
29	0	0	0	0	-0	0	1.0
30	0	0	0	0	-0	0	1.0
[Hips]
23	4.947490215	0.02346999943	8.00755024	5.779892445	1.50653553	-118.2897797	1.0
24	4.947490215	0.02346999943	8.00755024	5.516289711	1.191200733	-117.2643433	1.0
25	4.947490215	0.02346999943	8.00755024	5.112074375	-0.3943143189	-113.5183487	1.0
26	4.947490215	0.02346999943	8.00755024	5.097626686	-1.12601018	-112.083313	1.0
27	4.947490215	0.02346999943	8.00755024	5.024001122	-1.846176624	-110.6836395	1.0
28	4.947490215	0.02346999943	8.00755024	4.561753273	-2.161289692	-109.9164581	1.0
29	4.947490215	0.02346999943	8.00755024	4.17455101	-2.473694801	-108.9001923	1.0
30	4.947490215	0.02346999943	8.00755024	3.883662224	-2.093753338	-107.9297333	1.0
[Spine]
23	0	0	0.7457100153	121.5472717	87.95960999	133.855896	1.0
24	0	0	0.7457100153	124.621666	87.82989502	136.7531586	1.0
25	0	0	0.7457100153	144.9641876	86.95477295	157.4425659	1.0
26	0	0	0.7457100153	145.5401306	86.20591736	158.3577423	1.0
27	0	0	0.7457100153	142.6585693	85.37528992	155.5857849	1.0
28	0	0	0.7457100153	140.6060486	84.92959595	153.3101196	1.0
29	0	0	0.7457100153	137.9532776	84.55787659	150.2681427	1.0
30	0	0	0.7457100153	131.5997925	84.73887634	143.4182129	1.0
[Spine1]
23	0	0	2.140589952	8.388162613	-1.023975492	0.466263473	1.0
24	0	0	2.140589952	8.428997993	-0.9055981636	0.4880914688	1.0
25	0	0	2.140589952	9.542136192	-0.6080772281	0.439435035	1.0
26	0	0	2.140589952	10.23249245	-0.5063587427	0.5539210439	1.0
27	0	0	2.140589952	10.97748184	-0.3451448083	0.7628543973	1.0
28	0	0	2.140589952	11.74218178	-0.2667634189	0.9007877111	1.0
29	0	0	2.140589952	12.28895473	-0.13128528	1.057078719	1.0
30	0	0	2.140589952	12.39087391	-0.1143436506	1.181863427	1.0
[Neck]
23	0	0	2.32246995	62.86817169	76.83106995	76.85300446	1.0
24	0	0	2.32246995	63.31759262	77.39561462	77.32859039	1.0
25	0	0	2.32246995	65.83381653	79.36535645	79.32196808	1.0
26	0	0	2.32246995	66.2258606	79.81549072	79.4234314	1.0
27	0	0	2.32246995	65.98069763	80.90931702	79.30220032	1.0
28	0	0	2.32246995	65.45297241	81.47793579	79.09895325	1.0
29	0	0	2.32246995	65.05500793	82.19591522	78.88735962	1.0
30	0	0	2.32246995	67.48714447	83.02713776	81.14984894	1.0
[Head]
23	0	-0.1818799973	1.409579992	-73.22698975	96.06916809	-72.0012207	1.0
24	0	-0.1818799973	1.409579992	-75.32738495	95.39746094	-73.91075134	1.0
25	0	-0.1818799973	1.409579992	-76.04463959	93.36490631	-73.38527679	1.0
26	0	-0.1818799973	1.409579992	-65.57595825	93.18122101	-61.97083282	1.0
27	0	-0.1818799973	1.409579992	-47.98422241	92.47380066	-44.07748413	1.0
28	0	-0.1818799973	1.409579992	-32.2278862	92.47369385	-28.293396	1.0
29	0	-0.1818799973	1.409579992	-14.31712341	92.64344025	-10.31739807	1.0
30	0	-0.1818799973	1.409579992	3.006993532	92.51065063	7.063257694	1.0
[LeftShoulder]
23	0.3668199778	0.02662999928	1.946700096	-18.95091629	2.786397934	-13.02660084	1.0
24	0.3668199778	0.02662999928	1.946700096	-18.60201836	2.778673172	-12.88734722	1.0
25	0.3668199778	0.02662999928	1.946700096	-18.37841034	3.312041283	-13.26132011	1.0
26	0.3668199778	0.02662999928	1.946700096	-18.46260071	3.718215942	-13.68591213	1.0
27	0.3668199778	0.02662999928	1.946700096	-18.87112808	4.108617783	-14.24492264	1.0
28	0.3668199778	0.02662999928	1.946700096	-19.06758118	4.406801224	-14.52941132	1.0
29	0.3668199778	0.02662999928	1.946700096	-18.45765686	4.875153065	-14.71083355	1.0
30	0.3668199778	0.02662999928	1.946700096	-18.44772339	4.333859921	-14.47403717	1.0
[LeftArm]
23	1.140689969	0	0	63.00654221	76.19035339	8.855810165	1.0
24	1.140689969	0	0	65.22489929	76.29673004	11.45743752	1.0
25	1.140689969	0	0	73.37815857	75.47242737	20.06119919	1.0
26	1.140689969	0	0	74.77015686	74.61865234	22.79255486	1.0
27	1.140689969	0	0	77.96916962	73.28234863	28.27199554	1.0
28	1.140689969	0	0	78.75012207	72.11566925	31.35643387	1.0
29	1.140689969	0	0	78.27464294	70.51513672	34.51180649	1.0
30	1.140689969	0	0	79.62214661	67.89276123	42.04680634	1.0
[LeftForeArm]
23	2.749800205	0	0	-2.778856993	-12.91708851	-39.78978348	1.0
24	2.749800205	0	0	-3.254932642	-11.57811165	-38.6710434	1.0
25	2.749800205	0	0	-5.396721363	-9.284399033	-33.36019135	1.0
26	2.749800205	0	0	-6.401297092	-7.135728836	-29.83921051	1.0
27	2.749800205	0	0	-6.012322426	-5.16235733	-24.64732933	1.0
28	2.749800205	0	0	-5.532778263	-3.829197884	-20.62228394	1.0
29	2.749800205	0	0	-6.310145378	-2.384594917	-14.70887184	1.0
30	2.749800205	0	0	-8.186031342	-0.4869496822	-8.892784119	1.0
[LeftHand]
23	2.295179844	0	0	-7.319525242	-1.540605307	-11.15692711	1.0
24	2.295179844	0	0	-7.301232338	-0.2236693203	-11.16516685	1.0
25	2.295179844	0	0	-8.310339928	1.35884285	-10.62730789	1.0
26	2.295179844	0	0	-8.357266426	0.5425540209	-10.12717533	1.0
27	2.295179844	0	0	-7.099590302	-0.4822295904	-9.240133286	1.0
28	2.295179844	0	0	-6.130346775	-1.408547759	-7.640748978	1.0
29	2.295179844	0	0	-6.451042175	-3.788846016	-5.04045105	1.0
30	2.295179844	0	0	-8.184181213	-4.960331917	-0.6988842487	1.0
[RightShoulder]
23	-0.3601199985	0.02662999928	1.946700096	-0.91811198	5.052035809	-176.8118896	1.0
24	-0.3601199985	0.02662999928	1.946700096	-0.9397909641	4.863170624	-177.0118713	1.0
25	-0.3601199985	0.02662999928	1.946700096	-1.445091248	4.018322945	-177.2579803	1.0
26	-0.3601199985	0.02662999928	1.946700096	-1.976771355	3.340647221	-177.3659668	1.0
27	-0.3601199985	0.02662999928	1.946700096	-3.342627287	2.775085211	-177.4227905	1.0
28	-0.3601199985	0.02662999928	1.946700096	-4.096785545	2.295496464	-177.2663269	1.0
29	-0.3601199985	0.02662999928	1.946700096	-5.374611855	2.067406654	-177.0033264	1.0
30	-0.3601199985	0.02662999928	1.946700096	-6.526542664	1.995438814	-176.2850037	1.0
[RightArm]
23	-1.140689969	0	0	46.97681046	-62.39510345	-217.9165192	1.0
24	-1.140689969	0	0	49.64779282	-63.46733093	-218.5377045	1.0
25	-1.140689969	0	0	58.94372177	-67.85472107	-219.5870667	1.0
26	-1.140689969	0	0	64.54615784	-70.44308472	-219.160675	1.0
27	-1.140689969	0	0	73.55236816	-74.15093231	-218.719574	1.0
28	-1.140689969	0	0	78.60687256	-77.11795807	-215.5119324	1.0
29	-1.140689969	0	0	77.90855408	-81.00748444	-204.0776367	1.0
30	-1.140689969	0	0	50.69821167	-82.72941589	-168.4765167	1.0
[RightForeArm]
23	-2.749800205	0	0	12.79073334	-11.68272972	-179.8477783	1.0
24	-2.749800205	0	0	12.13085175	-11.52702332	-179.4392853	1.0
25	-2.749800205	0	0	8.468327522	-9.612034798	-177.5735779	1.0
26	-2.749800205	0	0	5.89260149	-7.860013008	-176.6363525	1.0
27	-2.749800205	0	0	2.594165564	-5.317575455	-175.933197	1.0
28	-2.749800205	0	0	-0.03404036164	-3.19604373	-175.6981506	1.0
29	-2.749800205	0	0	-1.8818928	-0.4604055583	-174.7894897	1.0
30	-2.749800205	0	0	-0.4113191962	1.469670415	-171.3989716	1.0
[RightHand]
23	-2.295179844	0	0	12.76220608	4.777311802	-181.0523529	1.0
24	-2.295179844	0	0	12.17690468	3.1418221	-180.494812	1.0
25	-2.295179844	0	0	8.690071106	1.364668846	-178.5089264	1.0
26	-2.295179844	0	0	6.147582531	1.222471237	-177.5928955	1.0
27	-2.295179844	0	0	2.826610088	1.563657284	-176.9421692	1.0
28	-2.295179844	0	0	0.1583689302	2.619547367	-176.8549652	1.0
29	-2.295179844	0	0	-1.755296826	3.670034885	-176.7003326	1.0
30	-2.295179844	0	0	-0.2730505764	6.695996284	-175.7794037	1.0
[LeftUpLeg]
23	0.9094099998	0	0	-237.966629	-85.0874939	223.697113	1.0
24	0.9094099998	0	0	-244.9976501	-86.89201355	230.9593048	1.0
25	0.9094099998	0	0	-287.5689697	-85.32378387	273.1099548	1.0
26	0.9094099998	0	0	-296.1989136	-84.31513214	281.7313843	1.0
27	0.9094099998	0	0	-306.1977539	-84.04672241	292.1532593	1.0
28	0.9094099998	0	0	-315.2498474	-84.37962341	302.4784546	1.0
29	0.9094099998	0	0	-331.9570923	-84.54008484	321.4956665	1.0
30	0.9094099998	0	0	-341.8822327	-84.73962402	335.090332	1.0
[LeftLeg]
23	0	0	-4.498080254	10.15415096	-82.69493103	6.270293236	1.0
24	0	0	-4.498080254	23.90445137	-83.12294769	-5.284143925	1.0
25	0	0	-4.498080254	45.96235657	-79.7387619	-21.14043427	1.0
26	0	0	-4.498080254	50.17844009	-78.03619385	-23.38556099	1.0
27	0	0	-4.498080254	55.09541702	-76.32763672	-26.64938354	1.0
28	0	0	-4.498080254	57.53102493	-76.20149231	-28.76786041	1.0
29	0	0	-4.498080254	61.79583359	-76.54415894	-34.43557739	1.0
30	0	0	-4.498080254	65.32814026	-77.85287476	-41.73005676	1.0
[LeftFoot]
23	0	0	-3.729400158	-50.52690125	-13.82577991	111.9765625	1.0
24	0	0	-3.729400158	-51.95044708	-13.95347404	111.104248	1.0
25	0	0	-3.729400158	-56.17525482	-12.70317459	112.973938	1.0
26	0	0	-3.729400158	-57.73228455	-11.81711578	113.4301682	1.0
27	0	0	-3.729400158	-59.56030273	-11.62033176	113.9279709	1.0
28	0	0	-3.729400158	-60.09001541	-12.08235168	113.2466125	1.0
29	0	0	-3.729400158	-59.96337128	-12.59287167	112.6656952	1.0
30	0	0	-3.729400158	-58.84506607	-13.30796432	111.4375458	1.0
[LeftToeBase]
23	0	-1.364109993	-0.5911099911	0	0	-9.999999975e-007	1.0
24	0	-1.364109993	-0.5911099911	0	0	-9.999999975e-007	1.0
25	0	-1.364109993	-0.5911099911	0	0	-9.999999975e-007	1.0
26	0	-1.364109993	-0.5911099911	0	0	-9.999999975e-007	1.0
27	0	-1.364109993	-0.5911099911	0	0	-9.999999975e-007	1.0
28	0	-1.364109993	-0.5911099911	0	0	-9.999999975e-007	1.0
29	0	-1.364109993	-0.5911099911	0	0	-9.999999975e-007	1.0
30	0	-1.364109993	-0.5911099911	0	0	-9.999999975e-007	1.0
[RightUpLeg]
23	-0.9094099998	0	0	-101.9473877	-95.96347046	107.7506714	1.0
24	-0.9094099998	0	0	-103.0024261	-97.52014923	108.2711792	1.0
25	-0.9094099998	0	0	-103.5143433	-99.72035217	104.383934	1.0
26	-0.9094099998	0	0	-104.5643463	-98.77163696	101.7334061	1.0
27	-0.9094099998	0	0	-106.5473175	-97.13030243	99.32949829	1.0
28	-0.9094099998	0	0	-104.5321198	-96.54144287	94.5554657	1.0
29	-0.9094099998	0	0	-100.7109756	-96.39803314	86.26219177	1.0
30	-0.9094099998	0	0	-90.64793396	-97.1809845	70.90934753	1.0
[RightLeg]
23	0	0	-4.498080254	2.491223097	-85.49745178	15.92265034	1.0
24	0	0	-4.498080254	29.12459946	-82.90105438	-7.435722828	1.0
25	0	0	-4.498080254	-5.704379082	-80.01461792	42.26946259	1.0
26	0	0	-4.498080254	4.513892174	-78.76902771	40.54021072	1.0
27	0	0	-4.498080254	9.728208542	-79.06752014	44.58557892	1.0
28	0	0	-4.498080254	15.85331154	-78.76982117	43.63562775	1.0
29	0	0	-4.498080254	26.90931511	-77.87013245	37.2217598	1.0
30	0	0	-4.498080254	24.33296967	-78.23701477	41.06748581	1.0
[RightFoot]
23	0	0	-3.729400158	-44.23740387	-24.83935356	113.1089325	1.0
24	0	0	-3.729400158	-44.68045425	-24.15724182	119.0487976	1.0
25	0	0	-3.729400158	-38.18005753	-30.41368675	112.1023407	1.0
26	0	0	-3.729400158	-33.13578033	-31.41691399	109.627182	1.0
27	0	0	-3.729400158	-28.44104004	-32.66400146	102.4669952	1.0
28	0	0	-3.729400158	-27.47800064	-31.97734833	99.53279877	1.0
29	0	0	-3.729400158	-27.48878098	-30.6169548	98.05225372	1.0
30	0	0	-3.729400158	-28.49796677	-29.04814911	94.76663208	1.0
[RightToeBase]
23	0	0	-0.5911099911	9.999999975e-007	9.999999975e-007	-1.999999995e-006	1.0
24	0	0	-0.5911099911	9.999999975e-007	9.999999975e-007	-1.999999995e-006	1.0
25	0	0	-0.5911099911	9.999999975e-007	9.999999975e-007	-1.999999995e-006	1.0
26	0	0	-0.5911099911	9.999999975e-007	9.999999975e-007	-1.999999995e-006	1.0
27	0	0	-0.5911099911	9.999999975e-007	9.999999975e-007	-1.999999995e-006	1.0
28	0	0	-0.5911099911	9.999999975e-007	9.999999975e-007	-1.999999995e-006	1.0
29	0	0	-0.5911099911	9.999999975e-007	9.999999975e-007	-1.999999995e-006	1.0
30	0	0	-0.5911099911	9.999999975e-007	9.999999975e-007	-1.999999995e-006	1.0
[EndOfFile]
